<svg width="140" height="100" viewBox="0 0 869 257" fill="none" xmlns="http://www.w3.org/2000/svg">
<path fill-rule="evenodd" clip-rule="evenodd" d="M209.821 171.333C209.821 183.112 201.329 192.75 190.833 192.75H229V214.167H0V192.75H38.1667C27.6708 192.75 19.0833 183.112 19.0833 171.333V64.2499C19.0833 52.4707 27.6708 42.8333 38.1667 42.8333H190.833C201.329 42.8333 209.917 52.4707 209.917 64.2499L209.821 171.333ZM190.833 64.25H38.1667V171.333H190.833V64.25Z" fill="#AFA6B7"/>
<path d="M327.125 139.344C326.281 146.562 323.609 152.141 319.109 156.078C314.641 159.984 308.688 161.938 301.25 161.938C293.188 161.938 286.719 159.047 281.844 153.266C277 147.484 274.578 139.75 274.578 130.062V123.5C274.578 117.156 275.703 111.578 277.953 106.766C280.234 101.953 283.453 98.2656 287.609 95.7031C291.766 93.1094 296.578 91.8125 302.047 91.8125C309.297 91.8125 315.109 93.8438 319.484 97.9062C323.859 101.938 326.406 107.531 327.125 114.688H318.078C317.297 109.25 315.594 105.312 312.969 102.875C310.375 100.438 306.734 99.2188 302.047 99.2188C296.297 99.2188 291.781 101.344 288.5 105.594C285.25 109.844 283.625 115.891 283.625 123.734V130.344C283.625 137.75 285.172 143.641 288.266 148.016C291.359 152.391 295.688 154.578 301.25 154.578C306.25 154.578 310.078 153.453 312.734 151.203C315.422 148.922 317.203 144.969 318.078 139.344H327.125ZM335.797 135.172C335.797 130.203 336.766 125.734 338.703 121.766C340.672 117.797 343.391 114.734 346.859 112.578C350.359 110.422 354.344 109.344 358.812 109.344C365.719 109.344 371.297 111.734 375.547 116.516C379.828 121.297 381.969 127.656 381.969 135.594V136.203C381.969 141.141 381.016 145.578 379.109 149.516C377.234 153.422 374.531 156.469 371 158.656C367.5 160.844 363.469 161.938 358.906 161.938C352.031 161.938 346.453 159.547 342.172 154.766C337.922 149.984 335.797 143.656 335.797 135.781V135.172ZM344.516 136.203C344.516 141.828 345.812 146.344 348.406 149.75C351.031 153.156 354.531 154.859 358.906 154.859C363.312 154.859 366.812 153.141 369.406 149.703C372 146.234 373.297 141.391 373.297 135.172C373.297 129.609 371.969 125.109 369.312 121.672C366.688 118.203 363.188 116.469 358.812 116.469C354.531 116.469 351.078 118.172 348.453 121.578C345.828 124.984 344.516 129.859 344.516 136.203ZM390.734 135.219C390.734 127.438 392.578 121.188 396.266 116.469C399.953 111.719 404.781 109.344 410.75 109.344C416.688 109.344 421.391 111.375 424.859 115.438V89H433.531V161H425.562L425.141 155.562C421.672 159.812 416.844 161.938 410.656 161.938C404.781 161.938 399.984 159.531 396.266 154.719C392.578 149.906 390.734 143.625 390.734 135.875V135.219ZM399.406 136.203C399.406 141.953 400.594 146.453 402.969 149.703C405.344 152.953 408.625 154.578 412.812 154.578C418.312 154.578 422.328 152.109 424.859 147.172V123.875C422.266 119.094 418.281 116.703 412.906 116.703C408.656 116.703 405.344 118.344 402.969 121.625C400.594 124.906 399.406 129.766 399.406 136.203ZM468.078 161.938C461.203 161.938 455.609 159.688 451.297 155.188C446.984 150.656 444.828 144.609 444.828 137.047V135.453C444.828 130.422 445.781 125.938 447.688 122C449.625 118.031 452.312 114.938 455.75 112.719C459.219 110.469 462.969 109.344 467 109.344C473.594 109.344 478.719 111.516 482.375 115.859C486.031 120.203 487.859 126.422 487.859 134.516V138.125H453.5C453.625 143.125 455.078 147.172 457.859 150.266C460.672 153.328 464.234 154.859 468.547 154.859C471.609 154.859 474.203 154.234 476.328 152.984C478.453 151.734 480.312 150.078 481.906 148.016L487.203 152.141C482.953 158.672 476.578 161.938 468.078 161.938ZM467 116.469C463.5 116.469 460.562 117.75 458.188 120.312C455.812 122.844 454.344 126.406 453.781 131H479.188V130.344C478.938 125.938 477.75 122.531 475.625 120.125C473.5 117.688 470.625 116.469 467 116.469ZM518.281 154.859C521.375 154.859 524.078 153.922 526.391 152.047C528.703 150.172 529.984 147.828 530.234 145.016H538.438C538.281 147.922 537.281 150.688 535.438 153.312C533.594 155.938 531.125 158.031 528.031 159.594C524.969 161.156 521.719 161.938 518.281 161.938C511.375 161.938 505.875 159.641 501.781 155.047C497.719 150.422 495.688 144.109 495.688 136.109V134.656C495.688 129.719 496.594 125.328 498.406 121.484C500.219 117.641 502.812 114.656 506.188 112.531C509.594 110.406 513.609 109.344 518.234 109.344C523.922 109.344 528.641 111.047 532.391 114.453C536.172 117.859 538.188 122.281 538.438 127.719H530.234C529.984 124.438 528.734 121.75 526.484 119.656C524.266 117.531 521.516 116.469 518.234 116.469C513.828 116.469 510.406 118.062 507.969 121.25C505.562 124.406 504.359 128.984 504.359 134.984V136.625C504.359 142.469 505.562 146.969 507.969 150.125C510.375 153.281 513.812 154.859 518.281 154.859ZM556.859 116.422C560.703 111.703 565.703 109.344 571.859 109.344C582.578 109.344 587.984 115.391 588.078 127.484V161H579.406V127.438C579.375 123.781 578.531 121.078 576.875 119.328C575.25 117.578 572.703 116.703 569.234 116.703C566.422 116.703 563.953 117.453 561.828 118.953C559.703 120.453 558.047 122.422 556.859 124.859V161H548.188V89H556.859V116.422ZM610.484 161H601.812V110.281H610.484V161ZM601.109 96.8281C601.109 95.4219 601.531 94.2344 602.375 93.2656C603.25 92.2969 604.531 91.8125 606.219 91.8125C607.906 91.8125 609.188 92.2969 610.062 93.2656C610.938 94.2344 611.375 95.4219 611.375 96.8281C611.375 98.2344 610.938 99.4062 610.062 100.344C609.188 101.281 607.906 101.75 606.219 101.75C604.531 101.75 603.25 101.281 602.375 100.344C601.531 99.4062 601.109 98.2344 601.109 96.8281ZM632.609 110.281L632.891 116.656C636.766 111.781 641.828 109.344 648.078 109.344C658.797 109.344 664.203 115.391 664.297 127.484V161H655.625V127.438C655.594 123.781 654.75 121.078 653.094 119.328C651.469 117.578 648.922 116.703 645.453 116.703C642.641 116.703 640.172 117.453 638.047 118.953C635.922 120.453 634.266 122.422 633.078 124.859V161H624.406V110.281H632.609ZM675.312 135.219C675.312 127.312 677.141 121.031 680.797 116.375C684.453 111.688 689.297 109.344 695.328 109.344C701.516 109.344 706.344 111.531 709.812 115.906L710.234 110.281H718.156V159.781C718.156 166.344 716.203 171.516 712.297 175.297C708.422 179.078 703.203 180.969 696.641 180.969C692.984 180.969 689.406 180.188 685.906 178.625C682.406 177.062 679.734 174.922 677.891 172.203L682.391 167C686.109 171.594 690.656 173.891 696.031 173.891C700.25 173.891 703.531 172.703 705.875 170.328C708.25 167.953 709.438 164.609 709.438 160.297V155.938C705.969 159.938 701.234 161.938 695.234 161.938C689.297 161.938 684.484 159.547 680.797 154.766C677.141 149.984 675.312 143.469 675.312 135.219ZM684.031 136.203C684.031 141.922 685.203 146.422 687.547 149.703C689.891 152.953 693.172 154.578 697.391 154.578C702.859 154.578 706.875 152.094 709.438 147.125V123.969C706.781 119.125 702.797 116.703 697.484 116.703C693.266 116.703 689.969 118.344 687.594 121.625C685.219 124.906 684.031 129.766 684.031 136.203Z" fill="#AFA6B7"/>
</svg>
